# xmcd
#
# Track frame offsets:
#	150
#	17664
#	35991
#	54468
#	70633
#	91360
#	110574
#	132026
#	154328
#	168618
#	183895
#	208522
#	227649
#	247513
#	269303
#	287305
#	305457
#
# Disc length: 4236 seconds
#
# Revision: 1
# Processed by: cddbd v1.5.2PL0 Copyright (c) Steve Scherf et al.
# Submitted via: EasyCDDAExtractor 8.1.2.3
#
DISCID=df108a11
DTITLE=Abba - Gold
DYEAR=1900
DGENRE=Oldies
TTITLE0=Dancing Queen
TTITLE1=Knowing Me, Knowing You
TTITLE2=Take A Chance On Me
TTITLE3=Mamma Mia
TTITLE4=Lay All Your Love On Me
TTITLE5=Super Trouper
TTITLE6=I Have A Dream
TTITLE7=The Winner Takes It All
TTITLE8=Money, Money, Money
TTITLE9=S.O.S.
TTITLE10=Chiquitita
TTITLE11=Fernando
TTITLE12=Voulez Vous
TTITLE13=Gimme! Gimme! Gimme! (A Man After Midnight)
TTITLE14=One Of Us
TTITLE15=The Name Of The Game
TTITLE16=Waterloo
EXTD=
EXTT0=
EXTT1=
EXTT2=
EXTT3=
EXTT4=
EXTT5=
EXTT6=
EXTT7=
EXTT8=
EXTT9=
EXTT10=
EXTT11=
EXTT12=
EXTT13=
EXTT14=
EXTT15=
EXTT16=
PLAYORDER=
